<svg width="49" height="50" viewBox="0 0 49 50" fill="none" xmlns="http://www.w3.org/2000/svg">
<rect width="49" height="50" rx="10" fill="#FF4343"/>
<path d="M31.9573 26.7097C31.7282 23.7269 30.3394 21.8578 29.1143 20.2083C27.9798 18.6813 27 17.3626 27 15.4174C27 15.2611 26.9125 15.1183 26.7737 15.0467C26.6346 14.9747 26.4673 14.9865 26.3408 15.0784C24.5008 16.3951 22.9656 18.6142 22.4293 20.7315C22.057 22.2056 22.0077 23.8628 22.0008 24.9573C20.3016 24.5944 19.9167 22.0527 19.9126 22.025C19.8935 21.8931 19.8129 21.7784 19.6957 21.7157C19.5773 21.6539 19.4382 21.6494 19.3181 21.7088C19.229 21.7519 17.131 22.818 17.0089 27.0743C17.0004 27.2159 17 27.3579 17 27.4999C17 31.6349 20.3646 34.9994 24.5 34.9994C24.5057 34.9998 24.5118 35.0006 24.5167 34.9994C24.5183 34.9994 24.5199 34.9994 24.5219 34.9994C28.6471 34.9875 32 31.6276 32 27.4999C32 27.2919 31.9573 26.7097 31.9573 26.7097ZM24.5 34.1661C23.1214 34.1661 22 32.9715 22 31.5031C22 31.4531 21.9996 31.4026 22.0032 31.3408C22.0199 30.7215 22.1375 30.2988 22.2665 30.0176C22.5082 30.5368 22.9403 31.0141 23.6423 31.0141C23.8726 31.0141 24.0589 30.8277 24.0589 30.5974C24.0589 30.0042 24.0712 29.3198 24.2189 28.7022C24.3503 28.1545 24.6644 27.5719 25.0624 27.1048C25.2394 27.711 25.5844 28.2017 25.9214 28.6806C26.4036 29.3658 26.902 30.0742 26.9895 31.2822C26.9948 31.3538 27.0001 31.4258 27.0001 31.5031C27 32.9715 25.8786 34.1661 24.5 34.1661Z" fill="#F4F4F7"/>
</svg>
