<svg width="50" height="50" viewBox="0 0 50 50" fill="none" xmlns="http://www.w3.org/2000/svg">
<rect width="50" height="49.8102" rx="10" fill="#FF7B43"/>
<path d="M21.8691 32.3182L22.828 33.3099C18.8963 32.2954 16.0398 28.7584 15.8627 24.7027H15L17.8817 21.9146L20.7634 24.7027H19.2454C19.4149 27.1316 21.0772 29.234 23.3972 29.9551L21.8691 31.5364L21.4921 31.926L21.8691 32.3182ZM17.8817 21.1354L18.2713 21.5123L19.4529 22.6559C19.84 21.3023 20.7103 20.1512 21.907 19.3643L22.7521 20.7761L23.6654 16.8722L19.7944 15.8299L20.1714 16.4624C17.8589 17.9273 16.3333 20.2954 15.9538 23L17.4896 21.5149L17.8817 21.1354ZM32.1208 28.098L31.7312 27.7211L30.6078 26.6357C29.6996 28.7533 27.5996 30.2435 25.1505 30.2435C25.1202 30.2435 25.0898 30.241 25.0595 30.2385V29.0443L22.2713 31.9285L25.0595 34.8102V33.6085C25.0898 33.6085 25.1202 33.6135 25.1505 33.6135C29.7071 33.6135 33.5098 30.3194 34.3017 25.988L32.5104 27.7211L32.1208 28.098ZM31.0886 24.3055C31.0886 24.3814 31.086 24.4548 31.0835 24.5281H29.2366L32.1183 27.3163L35 24.5281H34.451C34.4535 24.4548 34.456 24.3789 34.456 24.3055C34.456 19.1746 30.2815 15 25.1505 15V18.3675C28.4269 18.3675 31.0886 21.0316 31.0886 24.3055Z" fill="#F4F4F7"/>
</svg>
