<svg width="49" height="49" viewBox="0 0 49 49" fill="none" xmlns="http://www.w3.org/2000/svg">
<rect width="49" height="49" rx="10" fill="url(#paint0_linear_18)"/>
<path fill-rule="evenodd" clip-rule="evenodd" d="M24.5 12C22.8585 12 21.233 12.3233 19.7165 12.9515C18.1999 13.5797 16.8219 14.5004 15.6612 15.6612C14.5004 16.8219 13.5797 18.1999 12.9515 19.7165C12.3233 21.233 12 22.8585 12 24.5C12 26.1415 12.3233 27.767 12.9515 29.2835C13.5797 30.8001 14.5004 32.1781 15.6612 33.3388C16.8219 34.4996 18.1999 35.4203 19.7165 36.0485C21.233 36.6767 22.8585 37 24.5 37C26.1415 37 27.767 36.6767 29.2835 36.0485C30.8001 35.4203 32.1781 34.4996 33.3388 33.3388C34.4996 32.1781 35.4203 30.8001 36.0485 29.2835C36.6767 27.767 37 26.1415 37 24.5C37 22.8585 36.6767 21.233 36.0485 19.7165C35.4203 18.1999 34.4996 16.8219 33.3388 15.6612C32.1781 14.5004 30.8001 13.5797 29.2835 12.9515C27.767 12.3233 26.1415 12 24.5 12V12ZM23.2325 17.7281C24.0912 17.7427 24.9503 18.0072 25.6953 18.5277C27.398 19.7174 28.0437 21.9259 27.2507 23.8449C26.6804 25.2247 25.5477 26.256 24.1785 26.5589C24.1549 26.5641 23.999 26.5829 23.9873 26.5843H22.8988V25.5122C24.3965 25.199 25.5871 24.0487 25.9272 22.5479C26.2796 20.9927 25.6532 19.377 24.3444 18.4646C23.7731 18.0664 23.1195 17.8459 22.4543 17.7851C22.7116 17.7439 22.972 17.7237 23.2325 17.7281ZM22.8988 27.1052H23.9405V27.625H22.8988V27.1052ZM22.8988 28.1458H23.9405V30.75C23.9405 31.043 23.7127 31.2708 23.4197 31.2708C23.1266 31.2708 22.8988 31.043 22.8988 30.75V28.1458Z" fill="#F4F4F7"/>
<defs>
<linearGradient id="paint0_linear_18" x1="4.41" y1="4.41" x2="44.59" y2="47.53" gradientUnits="userSpaceOnUse">
<stop stop-color="#FF9D48"/>
<stop offset="1" stop-color="#C86D1E"/>
</linearGradient>
</defs>
</svg>
