<svg width="49" height="49" viewBox="0 0 49 49" fill="none" xmlns="http://www.w3.org/2000/svg">
<rect width="49" height="48.673" rx="10" fill="url(#paint0_linear_18)"/>
<path d="M30.2692 20.7308H37V17.6058C37 15.6175 35.3825 14 33.3942 14H15.6058C13.6175 14 12 15.6175 12 17.6058V31.0673C12 33.0555 13.6175 34.673 15.6058 34.673H33.3942C35.3825 34.673 37 33.0555 37 31.0673V27.9423H30.2692C28.281 27.9423 26.6635 26.3248 26.6635 24.3365C26.6635 22.3483 28.281 20.7308 30.2692 20.7308Z" fill="#F4F4F7"/>
<path d="M30.2694 22.1731C29.0765 22.1731 28.106 23.1436 28.106 24.3366C28.106 25.5295 29.0765 26.5 30.2694 26.5H37.0002V22.1731H30.2694V22.1731ZM31.231 25.0577H30.2694C29.8711 25.0577 29.5483 24.7348 29.5483 24.3366C29.5483 23.9383 29.8712 23.6154 30.2694 23.6154H31.231C31.6292 23.6154 31.9521 23.9383 31.9521 24.3366C31.9521 24.7348 31.6292 25.0577 31.231 25.0577Z" fill="#F4F4F7"/>
<defs>
<linearGradient id="paint0_linear_18" x1="3.43" y1="-7.29637e-07" x2="44.7566" y2="48.9461" gradientUnits="userSpaceOnUse">
<stop stop-color="#F73CC2"/>
<stop offset="1" stop-color="#B60C86"/>
</linearGradient>
</defs>
</svg>
